# xmcd CD database file
#
# Track frame offsets:
#	150
#	17340
#	39825
#	61289
#	80917
#	103873
#	135024
#	156977
#	174034
#	188720
#	209781
#	225393
#	244859
#
# Disc length: 3726 seconds
#
# Revision: 0
# Processed by: cddbd v1.5.1PL0 Copyright (c) Steve Scherf et al.
# Submitted via: CDex 1.51
#
DISCID=9d0e8c0d
DTITLE=Malene Langborg Jazz Junction - I wanna play Jazz
DYEAR=2005
DGENRE=Jazz
TTITLE0=It could happen to you
TTITLE1=I wanna play Jazz
TTITLE2=Den första gång jag såg dig
TTITLE3=No more blues
TTITLE4=Popsickle toes
TTITLE5=My foolish heart
TTITLE6=So much to say
TTITLE7=The lady is a tramp
TTITLE8=Killing me softly
TTITLE9=K.'s song
TTITLE10=My romance
TTITLE11=Du är den ende
TTITLE12=M-major blues
EXTD=YEAR: 2005
EXTT0=
EXTT1=
EXTT2=
EXTT3=
EXTT4=
EXTT5=
EXTT6=
EXTT7=
EXTT8=
EXTT9=
EXTT10=
EXTT11=
EXTT12=
PLAYORDER=
